<svg width="265" height="51" viewBox="0 0 265 51" fill="none" xmlns="http://www.w3.org/2000/svg">
<path d="M50 16.8632H33.0588V0H16.8235C16.8235 9.31604 9.29412 16.8632 0 16.8632V33.1368H16.8235V50H33.0588C33.0588 40.684 40.7059 33.1368 50 33.1368V16.8632Z" fill="#1D077A"/>
<path d="M78.0195 42H72.9922V21.8379H65.416V16.793H85.5781V21.8379H78.0195V42ZM105.529 42H88.25V16.793H105.529V21.8379H93.2949V26.8828H101.574V31.9277H93.2949V36.9551H105.529V42ZM123.898 31.9277V26.8828C123.898 26.1914 123.764 25.541 123.494 24.9316C123.236 24.3105 122.879 23.7715 122.422 23.3145C121.965 22.8574 121.426 22.5 120.805 22.2422C120.195 21.9727 119.545 21.8379 118.854 21.8379C118.162 21.8379 117.506 21.9727 116.885 22.2422C116.275 22.5 115.742 22.8574 115.285 23.3145C114.828 23.7715 114.465 24.3105 114.195 24.9316C113.938 25.541 113.809 26.1914 113.809 26.8828V31.9277H123.898ZM128.943 42H123.898V36.9551H113.809V42H108.781V26.8828C108.781 25.4883 109.045 24.1816 109.572 22.9629C110.1 21.7324 110.814 20.6602 111.717 19.7461C112.631 18.832 113.697 18.1113 114.916 17.584C116.146 17.0566 117.459 16.793 118.854 16.793C120.248 16.793 121.555 17.0566 122.773 17.584C124.004 18.1113 125.076 18.832 125.99 19.7461C126.904 20.6602 127.625 21.7324 128.152 22.9629C128.68 24.1816 128.943 25.4883 128.943 26.8828V42ZM153.447 39.416C152.275 40.4238 150.963 41.1973 149.51 41.7363C148.057 42.2754 146.551 42.5449 144.992 42.5449C143.797 42.5449 142.643 42.3867 141.529 42.0703C140.428 41.7656 139.391 41.332 138.418 40.7695C137.457 40.1953 136.578 39.5098 135.781 38.7129C134.984 37.916 134.299 37.0371 133.725 36.0762C133.162 35.1035 132.723 34.0664 132.406 32.9648C132.102 31.8516 131.949 30.6973 131.949 29.502C131.949 28.3066 132.102 27.1523 132.406 26.0391C132.723 24.9258 133.162 23.8887 133.725 22.9277C134.299 21.9551 134.984 21.0703 135.781 20.2734C136.578 19.4766 137.457 18.7969 138.418 18.2344C139.391 17.6602 140.428 17.2207 141.529 16.916C142.643 16.5996 143.797 16.4414 144.992 16.4414C146.551 16.4414 148.057 16.7109 149.51 17.25C150.963 17.7773 152.275 18.5508 153.447 19.5703L150.775 23.9648C150.037 23.168 149.164 22.5586 148.156 22.1367C147.148 21.7031 146.094 21.4863 144.992 21.4863C143.879 21.4863 142.836 21.6973 141.863 22.1191C140.891 22.541 140.041 23.1152 139.314 23.8418C138.588 24.5566 138.014 25.4062 137.592 26.3906C137.17 27.3633 136.959 28.4004 136.959 29.502C136.959 30.6035 137.17 31.6406 137.592 32.6133C138.014 33.5742 138.588 34.418 139.314 35.1445C140.041 35.8711 140.891 36.4453 141.863 36.8672C142.836 37.2891 143.879 37.5 144.992 37.5C146.094 37.5 147.148 37.2891 148.156 36.8672C149.164 36.4336 150.037 35.8184 150.775 35.0215L153.447 39.416ZM161.428 42H156.383V16.793H161.428V26.8828H171.5V16.793H176.545V42H171.5V31.9277H161.428V42Z" fill="#1D077A"/>
<path d="M180.199 42V17.2727H188.555C190.494 17.2727 192.08 17.6229 193.312 18.3232C194.551 19.0154 195.469 19.9531 196.064 21.1364C196.66 22.3196 196.958 23.6397 196.958 25.0966C196.958 26.5535 196.66 27.8776 196.064 29.0689C195.477 30.2602 194.567 31.21 193.336 31.9183C192.104 32.6186 190.527 32.9688 188.603 32.9688H182.614V30.3125H188.506C189.834 30.3125 190.901 30.0831 191.706 29.6243C192.511 29.1655 193.094 28.5457 193.456 27.7649C193.827 26.9761 194.012 26.0866 194.012 25.0966C194.012 24.1065 193.827 23.2211 193.456 22.4403C193.094 21.6596 192.507 21.0478 191.694 20.6051C190.881 20.1544 189.802 19.929 188.458 19.929H183.194V42H180.199ZM201.781 42V17.2727H204.776V39.3438H216.27V42H201.781ZM237.134 17.2727H240.128V33.6449C240.128 35.3352 239.73 36.8445 238.933 38.1726C238.144 39.4927 237.029 40.535 235.588 41.2997C234.147 42.0563 232.457 42.4347 230.517 42.4347C228.577 42.4347 226.887 42.0563 225.446 41.2997C224.005 40.535 222.887 39.4927 222.09 38.1726C221.301 36.8445 220.906 35.3352 220.906 33.6449V17.2727H223.901V33.4034C223.901 34.6108 224.166 35.6854 224.698 36.6271C225.229 37.5608 225.986 38.2973 226.968 38.8366C227.958 39.3679 229.141 39.6335 230.517 39.6335C231.894 39.6335 233.077 39.3679 234.067 38.8366C235.057 38.2973 235.814 37.5608 236.337 36.6271C236.868 35.6854 237.134 34.6108 237.134 33.4034V17.2727ZM259.63 23.4545C259.485 22.2311 258.898 21.2812 257.868 20.6051C256.837 19.929 255.574 19.5909 254.076 19.5909C252.982 19.5909 252.024 19.768 251.203 20.1222C250.39 20.4763 249.754 20.9633 249.295 21.5831C248.844 22.2029 248.619 22.9072 248.619 23.696C248.619 24.3561 248.776 24.9235 249.09 25.3984C249.412 25.8653 249.822 26.2557 250.321 26.5696C250.82 26.8755 251.344 27.129 251.891 27.3303C252.438 27.5234 252.941 27.6804 253.4 27.8011L255.912 28.4773C256.556 28.6463 257.272 28.8797 258.061 29.1776C258.858 29.4754 259.618 29.8819 260.343 30.397C261.075 30.9041 261.679 31.5561 262.154 32.353C262.629 33.1499 262.866 34.1278 262.866 35.2869C262.866 36.6231 262.516 37.8305 261.816 38.9091C261.123 39.9877 260.109 40.8449 258.773 41.4808C257.445 42.1167 255.831 42.4347 253.931 42.4347C252.161 42.4347 250.627 42.1489 249.331 41.5774C248.043 41.0059 247.029 40.209 246.289 39.1868C245.556 38.1645 245.142 36.9773 245.045 35.625H248.136C248.217 36.5587 248.53 37.3314 249.078 37.9432C249.633 38.5469 250.333 38.9976 251.179 39.2955C252.032 39.5852 252.949 39.7301 253.931 39.7301C255.074 39.7301 256.101 39.545 257.01 39.1747C257.92 38.7964 258.64 38.2732 259.172 37.6051C259.703 36.929 259.968 36.1402 259.968 35.2386C259.968 34.4176 259.739 33.7495 259.28 33.2344C258.821 32.7192 258.218 32.3007 257.469 31.9787C256.721 31.6567 255.912 31.375 255.042 31.1335L252 30.2642C250.068 29.7088 248.538 28.916 247.412 27.8857C246.285 26.8553 245.721 25.5071 245.721 23.8409C245.721 22.4564 246.096 21.2491 246.844 20.2188C247.601 19.1804 248.615 18.3755 249.887 17.804C251.167 17.2244 252.595 16.9347 254.173 16.9347C255.767 16.9347 257.183 17.2204 258.423 17.7919C259.663 18.3553 260.645 19.1281 261.369 20.1101C262.101 21.0921 262.488 22.2069 262.528 23.4545H259.63Z" fill="#1D077A"/>
</svg>
