<?xml version="1.0" standalone="no"?>
<!DOCTYPE svg PUBLIC "-//W3C//DTD SVG 20010904//EN"
 "http://www.w3.org/TR/2001/REC-SVG-20010904/DTD/svg10.dtd">
<svg version="1.0" xmlns="http://www.w3.org/2000/svg"
 width="934.000000pt" height="523.000000pt" viewBox="0 0 934.000000 523.000000"
 preserveAspectRatio="xMidYMid meet">

<g transform="translate(0.000000,523.000000) scale(0.100000,-0.100000)"
fill="#000000" stroke="none">
<path d="M875 3393 c-31 -250 -153 -436 -352 -537 -59 -30 -159 -56 -215 -56
l-38 0 0 -315 0 -315 305 0 305 0 0 -320 0 -320 289 0 288 0 7 67 c16 152 98
318 207 417 101 91 249 156 356 156 l43 0 0 315 0 315 -305 0 -305 0 0 320 0
320 -289 0 -290 0 -6 -47z"/>
<path d="M5125 2801 c-57 -14 -155 -73 -194 -117 -22 -23 -55 -71 -73 -106
-32 -61 -33 -67 -33 -178 0 -111 1 -117 33 -179 45 -85 116 -155 200 -194 62
-29 75 -32 167 -32 108 1 180 21 239 68 l29 24 -31 54 c-17 30 -36 60 -40 67
-7 11 -19 7 -54 -18 -48 -34 -132 -49 -201 -36 -45 8 -110 52 -142 96 -86 117
-58 279 63 362 38 26 58 32 117 36 82 5 131 -7 176 -45 16 -14 31 -24 33 -22
1 2 20 32 40 67 45 74 43 78 -48 124 -53 27 -73 31 -156 34 -52 2 -109 0 -125
-5z"/>
<path d="M2710 2720 l0 -80 120 0 120 0 0 -315 0 -315 80 0 80 0 0 315 0 314
118 3 117 3 3 78 3 77 -321 0 -320 0 0 -80z"/>
<path d="M3430 2405 l0 -395 275 0 275 0 0 75 0 75 -192 2 -193 3 -3 78 -3 77
131 0 130 0 0 80 0 80 -130 0 -130 0 0 80 0 80 193 2 192 3 3 78 3 77 -276 0
-275 0 0 -395z"/>
<path d="M4280 2779 c-62 -28 -104 -62 -139 -112 -54 -79 -61 -124 -61 -404
l0 -253 80 0 80 0 0 80 0 80 160 0 160 0 0 -80 0 -80 80 0 80 0 0 258 c0 297
-6 331 -73 415 -29 36 -62 62 -106 85 -56 28 -74 32 -140 32 -55 0 -89 -6
-121 -21z m200 -158 c19 -10 45 -36 57 -57 19 -33 23 -54 23 -141 l0 -103
-160 0 -160 0 0 95 c0 126 27 187 95 215 36 15 109 11 145 -9z"/>
<path d="M5590 2405 l0 -395 80 0 80 0 0 155 0 155 160 0 160 0 0 -155 0 -155
80 0 80 0 0 395 0 395 -80 0 -79 0 -3 -157 -3 -158 -157 -3 -158 -3 0 161 0
160 -80 0 -80 0 0 -395z"/>
<path d="M8606 2785 c-65 -25 -105 -55 -130 -98 -50 -87 -43 -167 21 -229 45
-44 95 -67 227 -104 130 -36 166 -65 166 -134 0 -84 -71 -139 -180 -140 -104
0 -174 38 -187 102 -5 26 -9 28 -55 28 l-50 0 7 -32 c11 -52 31 -83 77 -122
55 -47 104 -61 210 -60 76 1 95 4 144 30 71 36 111 85 123 147 26 140 -45 215
-257 272 -118 32 -167 62 -183 113 -9 33 -9 45 6 75 53 112 268 113 325 2 20
-39 28 -45 68 -45 29 0 32 3 32 29 0 28 -38 94 -69 119 -70 55 -213 78 -295
47z"/>
<path d="M6360 2400 l0 -390 45 0 45 0 0 139 0 139 129 4 c119 3 133 6 187 33
77 40 114 97 121 189 8 90 -11 149 -61 202 -60 61 -112 74 -308 74 l-158 0 0
-390z m362 286 c75 -36 103 -174 51 -244 -38 -51 -68 -60 -198 -63 l-120 -3
-3 154 c-1 85 0 160 3 168 8 22 217 12 267 -12z"/>
<path d="M7050 2400 l0 -390 231 0 230 0 -3 38 -3 37 -182 3 -183 2 0 350 0
350 -45 0 -45 0 0 -390z"/>
<path d="M7652 2498 c4 -312 6 -329 58 -395 109 -139 359 -148 479 -18 70 76
71 82 71 411 l0 294 -45 0 -45 0 0 -272 c0 -154 -5 -289 -10 -310 -12 -43 -73
-101 -125 -118 -48 -16 -140 -9 -188 15 -22 10 -51 36 -65 58 l-27 40 -3 294
-3 293 -50 0 -51 0 4 -292z"/>
</g>
</svg>
